<svg width="1632" height="1244" viewBox="0 0 1632 1244" fill="none" xmlns="http://www.w3.org/2000/svg">
<g clip-path="url(#clip0_149_248)">
<path d="M565.49 1211.54L581.523 1216.34L607.677 1156.81L584.013 1149.72L565.49 1211.54Z" fill="#FFB8B8"/>
<path d="M562.967 1205.08L594.544 1214.53L594.545 1214.53C599.882 1216.13 604.365 1219.78 607.009 1224.69C609.652 1229.59 610.239 1235.34 608.641 1240.67L608.445 1241.33L556.744 1225.85L562.967 1205.08Z" fill="#2F2E41"/>
<path d="M717.863 1224.63L733.579 1218.87L718.834 1155.55L695.64 1164.05L717.863 1224.63Z" fill="#FFB8B8"/>
<path d="M711.974 1220.97L742.922 1209.63L742.924 1209.63C748.154 1207.71 753.933 1207.95 758.987 1210.29C764.042 1212.63 767.959 1216.89 769.877 1222.12L770.112 1222.76L719.441 1241.33L711.974 1220.97Z" fill="#2F2E41"/>
<path d="M592.374 1103.77L565.069 1193.83L597.834 1203.38L629.235 1120.14L592.374 1103.77Z" fill="#2F2E41"/>
<path d="M678.385 1124.24L702.96 1208.84L737.091 1192.47L712.517 1113.32L678.385 1124.24Z" fill="#2F2E41"/>
<path d="M665.595 1139.5C643.74 1139.4 621.935 1137.39 600.43 1133.49L599.882 1133.38V1112.57L587.404 1111.18L597.144 1076.41C592.604 1022.84 599.055 955.007 601.142 935.482C601.621 930.903 601.935 928.333 601.935 928.333L612.886 835.292L631.21 818.387L639.534 823.801L654.975 839.234C672.924 883.384 687.166 924.949 687.256 927.619L747.448 1120.41L747.042 1120.7C726.141 1135.45 694.281 1139.5 665.595 1139.5Z" fill="#3F3D56"/>
<path opacity="0.2" d="M620.653 876.561L616.444 902.818L644.936 914.566L620.653 876.561Z" fill="black"/>
<path d="M676.56 818.25H610.685C609.33 818.248 608.031 817.709 607.072 816.752C606.114 815.794 605.575 814.495 605.574 813.141V784.76C605.594 774.687 609.611 765.033 616.744 757.917C623.878 750.801 633.544 746.804 643.622 746.804C653.701 746.804 663.367 750.801 670.5 757.917C677.634 765.033 681.651 774.687 681.671 784.76V813.141C681.67 814.495 681.131 815.794 680.172 816.752C679.214 817.709 677.915 818.248 676.56 818.25V818.25Z" fill="#2F2E41"/>
<path d="M650.895 816.54C666.302 816.54 678.791 804.056 678.791 788.657C678.791 773.258 666.302 760.775 650.895 760.775C635.489 760.775 623 773.258 623 788.657C623 804.056 635.489 816.54 650.895 816.54Z" fill="#FFB8B8"/>
<path d="M690.672 787.598H650.391L649.978 781.818L647.913 787.598H641.71L640.892 776.141L636.798 787.598H624.797V787.03C624.806 779.054 627.98 771.408 633.622 765.768C639.265 760.128 646.915 756.956 654.895 756.947H660.574C668.554 756.956 676.204 760.128 681.847 765.768C687.489 771.408 690.663 779.054 690.672 787.03V787.598Z" fill="#2F2E41"/>
<path d="M650.061 823.547C649.758 823.547 649.455 823.52 649.157 823.467L619.661 818.266V769.542H652.13L651.326 770.478C640.142 783.516 648.568 804.656 654.586 816.097C655.03 816.935 655.228 817.881 655.157 818.827C655.086 819.772 654.749 820.678 654.186 821.441C653.714 822.093 653.094 822.624 652.377 822.99C651.66 823.356 650.866 823.547 650.061 823.547V823.547Z" fill="#2F2E41"/>
<path d="M702.106 941.318H685.938C685.42 941.319 684.919 941.127 684.535 940.779C684.151 940.43 683.91 939.951 683.862 939.435L680.625 906.28H707.419L704.183 939.434C704.134 939.951 703.894 940.43 703.51 940.779C703.126 941.127 702.625 941.319 702.106 941.318V941.318Z" fill="#6C63FF"/>
<path d="M707.377 910.451H680.669C680.115 910.45 679.585 910.23 679.194 909.839C678.803 909.448 678.583 908.918 678.582 908.365V903.36C678.583 902.807 678.803 902.277 679.194 901.886C679.585 901.495 680.115 901.275 680.669 901.274H707.377C707.93 901.275 708.46 901.495 708.852 901.886C709.243 902.277 709.463 902.807 709.464 903.36V908.365C709.463 908.918 709.243 909.448 708.852 909.839C708.46 910.23 707.93 910.45 707.377 910.451V910.451Z" fill="#2F2E41"/>
<path opacity="0.2" d="M602.613 927.052C610.038 935.644 620.108 941.528 631.242 943.777C642.376 946.026 653.942 944.514 664.122 939.478L670.194 936.475L602.613 927.052Z" fill="black"/>
<path d="M699.684 920.633C698.44 919.236 696.904 918.128 695.185 917.388C693.466 916.648 691.606 916.294 689.735 916.351C687.864 916.407 686.029 916.873 684.358 917.715C682.686 918.557 681.22 919.756 680.063 921.225L651.897 913.322L642.917 929.259L682.85 939.861C685.449 941.642 688.611 942.407 691.737 942.013C694.864 941.618 697.737 940.091 699.812 937.721C701.887 935.351 703.02 932.302 702.996 929.153C702.973 926.004 701.794 922.972 699.684 920.633V920.633Z" fill="#FFB8B8"/>
<path d="M632.471 938.319C619.08 938.32 600.961 930.472 579.451 915.272C578.253 914.442 577.24 913.372 576.476 912.13C575.712 910.889 575.215 909.502 575.016 908.058C573.43 898.011 583.234 884.429 584.195 883.127L594.502 854.837C594.621 854.377 597.942 842.137 606.281 837.782C608.036 836.882 609.966 836.372 611.937 836.288C613.909 836.204 615.875 836.548 617.701 837.295C633.584 843.076 621.182 887.716 619.479 893.571L640.523 903.471L653.886 911.985L672.187 913.898L667.218 936.882L639.425 937.507C637.149 938.064 634.814 938.336 632.471 938.319V938.319Z" fill="#3F3D56"/>
<path d="M1631.4 728.646C1631.39 701.787 1625.4 675.268 1613.86 651.009C1602.33 626.751 1585.54 605.361 1564.71 588.389C1543.88 571.417 1519.54 559.289 1493.44 552.882C1467.35 546.476 1440.15 545.952 1413.83 551.348C1387.5 556.745 1362.71 567.927 1341.24 584.083C1319.78 600.24 1302.18 620.968 1289.72 644.764C1277.25 668.56 1270.24 694.828 1269.19 721.667C1268.14 748.505 1273.08 775.241 1283.65 799.937C1283.47 799.74 1283.28 799.548 1283.11 799.351C1291.16 818.097 1302.31 835.352 1316.11 850.386C1316.15 850.432 1316.19 850.476 1316.23 850.521C1317.34 851.734 1318.46 852.94 1319.61 854.122C1336.16 871.381 1355.99 885.182 1377.92 894.722C1399.86 904.263 1423.47 909.352 1447.39 909.696L1441.27 1242.06H1460.18L1456.36 1022.69L1483.71 1008.3L1479.54 1000.37L1456.18 1012.67L1454.38 909.679C1501.7 908.595 1546.72 889.046 1579.8 855.214C1612.88 821.382 1631.4 775.953 1631.4 728.646V728.646Z" fill="#E6E6E6"/>
<path d="M1093.67 640.385C1093.66 608.908 1086.64 577.83 1073.12 549.401C1059.6 520.972 1039.92 495.905 1015.52 476.016C991.108 456.127 962.58 441.913 931.997 434.405C901.415 426.897 869.545 426.283 838.696 432.608C807.847 438.932 778.791 452.036 753.635 470.97C728.478 489.905 707.851 514.195 693.247 542.082C678.643 569.969 670.428 600.754 669.198 632.206C667.967 663.658 673.752 694.99 686.133 723.932C685.926 723.701 685.711 723.476 685.505 723.245C694.935 745.214 708.009 765.435 724.174 783.054C724.222 783.107 724.272 783.159 724.32 783.212C725.625 784.633 726.937 786.046 728.279 787.431C747.681 807.658 770.91 823.832 796.617 835.012C822.324 846.192 849.997 852.157 878.03 852.56L870.855 1242.06H893.02L888.534 984.983L920.597 968.111L915.706 958.825L888.329 973.231L886.223 852.54C941.675 851.269 994.428 828.36 1033.2 788.711C1071.97 749.063 1093.67 695.824 1093.67 640.385V640.385Z" fill="#E6E6E6"/>
<path d="M483.827 557.366C483.808 521.547 475.817 486.18 460.434 453.829C445.051 421.478 422.661 392.952 394.885 370.318C367.11 347.684 334.645 331.51 299.843 322.966C265.041 314.422 228.773 313.724 193.667 320.92C158.562 328.117 125.497 343.029 96.8698 364.576C68.2423 386.123 44.7686 413.765 28.1496 445.5C11.5305 477.235 2.18227 512.267 0.782149 548.059C-0.617977 583.851 5.96509 619.506 20.0544 652.441C19.8181 652.178 19.574 651.923 19.3389 651.659C30.0707 676.66 44.9481 699.671 63.3441 719.721C63.399 719.782 63.4554 719.841 63.5105 719.901C64.9948 721.518 66.4876 723.126 68.0149 724.702C90.0943 747.72 116.528 766.125 145.783 778.848C175.037 791.571 206.528 798.359 238.429 798.817L230.264 1242.06H255.488L250.383 949.513L286.87 930.312L281.304 919.745L250.15 936.139L247.753 798.795C310.856 797.349 370.888 771.278 415.006 726.159C459.125 681.04 483.826 620.456 483.827 557.366V557.366Z" fill="#E6E6E6"/>
<path d="M1390.67 315.867C1477.93 315.867 1548.67 245.158 1548.67 157.934C1548.67 70.7093 1477.93 0 1390.67 0C1303.4 0 1232.66 70.7093 1232.66 157.934C1232.66 245.158 1303.4 315.867 1390.67 315.867Z" fill="#EF8B34"/>
<path d="M451.297 661.172C626.195 661.172 767.978 519.457 767.978 344.643C767.978 169.829 626.195 28.1138 451.297 28.1138C276.399 28.1138 134.616 169.829 134.616 344.643C134.616 519.457 276.399 661.172 451.297 661.172Z" fill="#7D63BF"/>
<path opacity="0.2" d="M217.471 133.226C187.931 202.291 183.924 279.603 206.165 351.349C228.406 423.095 275.446 484.598 338.879 524.869C402.311 565.14 478.004 581.554 552.43 571.179C626.857 560.803 695.167 524.314 745.155 468.231C727.11 510.427 700.103 548.197 666.004 578.924C631.905 609.651 591.531 632.601 547.677 646.183C503.824 659.766 457.541 663.656 412.034 657.585C366.527 651.514 322.884 635.627 284.13 611.023C245.376 586.42 212.437 553.689 187.595 515.099C162.753 476.508 146.602 432.981 140.262 387.532C133.921 342.083 137.542 295.8 150.874 251.888C164.205 207.977 186.929 167.488 217.471 133.226V133.226Z" fill="black"/>
<path d="M452.167 344.643H453.038L468.698 1242.05H435.637L452.167 344.643Z" fill="#3F3D56"/>
<path d="M502.534 819.608L450.186 847.155L457.481 861.006L509.829 833.458L502.534 819.608Z" fill="#3F3D56"/>
<path d="M935.671 1233.66C935.671 1233.66 936.814 1209.73 960.237 1212.51Z" fill="#3F3D56"/>
<path d="M929.053 1210.89C935.527 1210.89 940.776 1205.64 940.776 1199.17C940.776 1192.7 935.527 1187.45 929.053 1187.45C922.579 1187.45 917.33 1192.7 917.33 1199.17C917.33 1205.64 922.579 1210.89 929.053 1210.89Z" fill="#6C63FF"/>
<path d="M930.455 1218.9H927.146V1242.05H930.455V1218.9Z" fill="#3F3D56"/>
<path d="M123.288 1230.35C123.288 1230.35 124.43 1206.42 147.853 1209.2Z" fill="#3F3D56"/>
<path d="M116.669 1207.58C123.144 1207.58 128.392 1202.34 128.392 1195.86C128.392 1189.39 123.144 1184.15 116.669 1184.15C110.195 1184.15 104.946 1189.39 104.946 1195.86C104.946 1202.34 110.195 1207.58 116.669 1207.58Z" fill="#6C63FF"/>
<path d="M118.071 1215.6H114.762V1238.75H118.071V1215.6Z" fill="#3F3D56"/>
<path d="M315.215 1232.01C315.215 1232.01 316.358 1208.08 339.781 1210.86Z" fill="#3F3D56"/>
<path d="M308.597 1209.23C315.071 1209.23 320.32 1203.99 320.32 1197.52C320.32 1191.05 315.071 1185.8 308.597 1185.8C302.123 1185.8 296.874 1191.05 296.874 1197.52C296.874 1203.99 302.123 1209.23 308.597 1209.23Z" fill="#6C63FF"/>
<path d="M309.999 1217.25H306.689V1240.4H309.999V1217.25Z" fill="#3F3D56"/>
<path d="M825.636 153.016L849.151 134.217C830.883 132.203 823.377 142.161 820.306 150.043C806.034 144.12 790.498 151.882 790.498 151.882L837.547 168.954C835.173 162.618 831.042 157.089 825.636 153.016V153.016Z" fill="#3F3D56"/>
<path d="M1183.25 344.503L1206.76 325.704C1188.5 323.69 1180.99 333.648 1177.92 341.53C1163.65 335.606 1148.11 343.369 1148.11 343.369L1195.16 360.441C1192.79 354.105 1188.66 348.576 1183.25 344.503V344.503Z" fill="#3F3D56"/>
<path d="M797.538 507.904L821.053 489.106C802.785 487.092 795.279 497.05 792.207 504.931C777.936 499.008 762.4 506.771 762.4 506.771L809.449 523.843C807.075 517.506 802.943 511.977 797.538 507.904Z" fill="#3F3D56"/>
<path d="M1256.45 1242.35C1256.45 1242.35 1257.59 1218.42 1281.01 1221.2Z" fill="#3F3D56"/>
<path d="M1036.39 1242.35C1036.39 1242.35 1037.54 1218.42 1060.96 1221.2Z" fill="#3F3D56"/>
<path d="M233.936 1242.35C233.936 1242.35 235.079 1218.42 258.501 1221.2Z" fill="#3F3D56"/>
<path d="M1355.72 1242.35C1355.72 1242.35 1356.86 1218.42 1380.29 1221.2Z" fill="#3F3D56"/>
<path d="M1309.39 1242.35C1309.39 1242.35 1310.54 1218.42 1333.96 1221.2Z" fill="#3F3D56"/>
<path d="M1213.83 1242.35C1213.83 1242.35 1212.68 1218.42 1189.26 1221.2Z" fill="#3F3D56"/>
<path d="M833.281 1242.35C833.281 1242.35 832.138 1218.42 808.716 1221.2Z" fill="#3F3D56"/>
<path d="M517.263 1242.35C517.263 1242.35 516.12 1218.42 492.697 1221.2Z" fill="#3F3D56"/>
<path d="M181.389 1242.35C181.389 1242.35 180.246 1218.42 156.824 1221.2Z" fill="#3F3D56"/>
<path d="M1455.39 1242.35C1455.39 1242.35 1454.25 1218.42 1430.83 1221.2Z" fill="#3F3D56"/>
<path d="M1313.1 1244C1313.1 1244 1311.96 1220.07 1288.54 1222.85Z" fill="#3F3D56"/>
<path d="M1632 1239.22H0V1242.89H1632V1239.22Z" fill="#3F3D56"/>
</g>
<defs>
<clipPath id="clip0_149_248">
<rect width="1632" height="1244" fill="white"/>
</clipPath>
</defs>
</svg>
