<svg width="46" height="46" viewBox="0 0 46 46" fill="none" xmlns="http://www.w3.org/2000/svg">
<rect width="46" height="46" rx="23" fill="#00FFF0"/>
<path d="M23 9C21.0302 9 19.0796 9.38437 17.2597 10.1311C15.4399 10.8779 13.7863 11.9725 12.3934 13.3524C9.58035 16.1392 8 19.9189 8 23.86C8 30.4281 12.305 36.0006 18.26 37.977C19.01 38.0959 19.25 37.6352 19.25 37.234C19.25 36.8922 19.25 35.956 19.25 34.7226C15.095 35.6142 14.21 32.7314 14.21 32.7314C13.52 31.0076 12.545 30.547 12.545 30.547C11.18 29.6257 12.65 29.6554 12.65 29.6554C14.15 29.7594 14.945 31.186 14.945 31.186C16.25 33.4447 18.455 32.776 19.31 32.4193C19.445 31.4534 19.835 30.7996 20.255 30.4281C16.925 30.0566 13.43 28.7786 13.43 23.117C13.43 21.4675 14 20.145 14.975 19.0899C14.825 18.7184 14.3 17.173 15.125 15.1669C15.125 15.1669 16.385 14.7657 19.25 16.6826C20.435 16.3557 21.725 16.1922 23 16.1922C24.275 16.1922 25.565 16.3557 26.75 16.6826C29.615 14.7657 30.875 15.1669 30.875 15.1669C31.7 17.173 31.175 18.7184 31.025 19.0899C32 20.145 32.57 21.4675 32.57 23.117C32.57 28.7935 29.06 30.0417 25.715 30.4132C26.255 30.8739 26.75 31.7804 26.75 33.1623V37.234C26.75 37.6352 26.99 38.1107 27.755 37.977C33.71 35.9857 38 30.4281 38 23.86C38 21.9085 37.612 19.9762 36.8582 18.1733C36.1044 16.3704 34.9995 14.7323 33.6066 13.3524C32.2137 11.9725 30.5601 10.8779 28.7403 10.1311C26.9204 9.38437 24.9698 9 23 9Z" fill="black"/>
</svg>
