<svg width="30" height="30" viewBox="0 0 30 30" fill="none" xmlns="http://www.w3.org/2000/svg">
<path fill-rule="evenodd" clip-rule="evenodd" d="M9.33117 1.3325C10.7978 1.26527 11.2654 1.25 15 1.25C18.7354 1.25 19.2021 1.26604 20.668 1.3325C22.1324 1.39896 23.1324 1.63195 24.007 1.97187C24.9244 2.31726 25.7554 2.85842 26.4422 3.55771C27.1416 4.2445 27.6829 5.07558 28.0281 5.99299C28.368 6.86764 28.6003 7.86758 28.6675 9.33117C28.7348 10.7978 28.75 11.2654 28.75 15C28.75 18.7346 28.734 19.2021 28.6675 20.6689C28.601 22.1324 28.368 23.1324 28.0281 24.007C27.6768 24.9108 27.2061 25.6784 26.4422 26.4422C25.7555 27.1416 24.9244 27.6829 24.007 28.0281C23.1324 28.368 22.1324 28.6003 20.6689 28.6675C19.2021 28.7348 18.7346 28.75 15 28.75C11.2654 28.75 10.7978 28.734 9.33117 28.6675C7.86758 28.601 6.86764 28.368 5.99299 28.0281C5.0893 27.6768 4.3216 27.2061 3.55771 26.4422C2.8583 25.7555 2.3171 24.9244 1.97187 24.007C1.63195 23.1324 1.39972 22.1324 1.3325 20.6689C1.26527 19.2021 1.25 18.7354 1.25 15C1.25 11.2646 1.26604 10.7978 1.3325 9.33195C1.39896 7.86758 1.63195 6.86764 1.97187 5.99299C2.31726 5.07564 2.85842 4.2446 3.55771 3.55771C4.24449 2.8583 5.07556 2.3171 5.99299 1.97187C6.86764 1.63195 7.86758 1.39972 9.33117 1.3325ZM20.5565 3.8075C19.1066 3.7418 18.6712 3.72729 15 3.72729C11.3287 3.72729 10.8933 3.7418 9.44347 3.8075C8.10285 3.86861 7.37486 4.09243 6.89055 4.28111C6.24889 4.53014 5.79055 4.82805 5.3093 5.3093C4.82882 5.79055 4.53014 6.24889 4.28111 6.89055C4.09243 7.37486 3.86861 8.10285 3.8075 9.44347C3.7418 10.8933 3.72729 11.3287 3.72729 15C3.72729 18.6712 3.7418 19.1066 3.8075 20.5565C3.86861 21.8971 4.09243 22.6251 4.28111 23.1095C4.50139 23.7068 4.85274 24.247 5.3093 24.6908C5.75292 25.1472 6.29326 25.4986 6.89055 25.7189C7.37486 25.9076 8.10285 26.1314 9.44347 26.1925C10.8933 26.2583 11.328 26.2728 15 26.2728C18.672 26.2728 19.1066 26.2583 20.5565 26.1925C21.8971 26.1314 22.6251 25.9076 23.1095 25.7189C23.7511 25.4699 24.2095 25.172 24.6908 24.6908C25.1472 24.2471 25.4986 23.7068 25.7189 23.1095C25.9076 22.6251 26.1314 21.8971 26.1925 20.5565C26.2583 19.1066 26.2728 18.6712 26.2728 15C26.2728 11.3287 26.2583 10.8933 26.1925 9.44347C26.1314 8.10285 25.9076 7.37486 25.7189 6.89055C25.4699 6.24889 25.172 5.79055 24.6908 5.3093C24.2095 4.82882 23.7511 4.53014 23.1095 4.28111C22.6251 4.09243 21.8971 3.86861 20.5565 3.8075ZM13.2444 19.2386C13.801 19.4692 14.3975 19.5879 15 19.5879C16.2169 19.5879 17.3837 19.1045 18.2441 18.2441C19.1046 17.3837 19.588 16.2168 19.588 15C19.588 13.7832 19.1046 12.6163 18.2441 11.7558C17.3837 10.8955 16.2169 10.4121 15 10.4121C14.3975 10.4121 13.801 10.5307 13.2444 10.7613C12.6876 10.9919 12.1819 11.3298 11.7559 11.7558C11.3299 12.1819 10.9919 12.6876 10.7614 13.2442C10.5308 13.8009 10.4121 14.3975 10.4121 15C10.4121 15.6025 10.5308 16.1991 10.7614 16.7558C10.9919 17.3124 11.3299 17.8181 11.7559 18.2441C12.1819 18.6701 12.6876 19.0081 13.2444 19.2386ZM10.0026 10.0025C11.328 8.6771 13.1256 7.93249 15 7.93249C16.8745 7.93249 18.6721 8.6771 19.9975 10.0025C21.3229 11.3279 22.0675 13.1256 22.0675 15C22.0675 16.8744 21.3229 18.672 19.9975 19.9975C18.6721 21.3229 16.8745 22.0675 15 22.0675C13.1256 22.0675 11.328 21.3229 10.0026 19.9975C8.67715 18.672 7.93254 16.8744 7.93254 15C7.93254 13.1256 8.67715 11.3279 10.0026 10.0025ZM23.6346 8.98547C23.9479 8.67216 24.1239 8.24724 24.1239 7.80416C24.1239 7.36107 23.9479 6.93615 23.6346 6.62285C23.3212 6.30955 22.8964 6.13354 22.4533 6.13354C22.0103 6.13354 21.5852 6.30955 21.272 6.62285C20.9586 6.93615 20.7826 7.36107 20.7826 7.80416C20.7826 8.24724 20.9586 8.67216 21.272 8.98547C21.5852 9.29877 22.0103 9.47479 22.4533 9.47479C22.8964 9.47479 23.3212 9.29877 23.6346 8.98547Z" fill="white"/>
</svg>
