<svg width="33" height="33" viewBox="0 0 33 33" fill="none" xmlns="http://www.w3.org/2000/svg">
<path d="M28.0988 16.4999C28.5058 16.1957 28.8488 15.8142 29.1083 15.3773C29.3677 14.9404 29.5384 14.4567 29.6107 13.9537C29.683 13.4508 29.6555 12.9385 29.5296 12.4462C29.4037 11.9539 29.182 11.4913 28.8772 11.0848C28.5724 10.6783 28.1904 10.3358 27.7531 10.077C27.3158 9.81827 26.8318 9.64825 26.3288 9.57672C25.8257 9.50518 25.3135 9.53352 24.8214 9.66012C24.3293 9.78672 23.867 10.0091 23.4609 10.3145V7.21866C23.4612 6.40683 23.2059 5.61551 22.7312 4.95692C22.2565 4.29833 21.5866 3.80589 20.8163 3.54943C20.046 3.29298 19.2146 3.28552 18.4398 3.52812C17.6651 3.77072 16.9864 4.25107 16.5 4.90104C16.1957 4.4942 15.8142 4.15131 15.3774 3.89201C14.9405 3.63271 14.4568 3.46206 13.9539 3.38984C13.451 3.31762 12.9388 3.34524 12.4466 3.47111C11.9544 3.59699 11.4919 3.81865 11.0854 4.12343C10.679 4.42821 10.3366 4.81012 10.0778 5.24733C9.81905 5.68453 9.64902 6.16846 9.57744 6.67143C9.50585 7.17439 9.53411 7.68654 9.6606 8.17858C9.7871 8.67062 10.0093 9.1329 10.3146 9.53898H7.21875C6.40691 9.53869 5.61559 9.79399 4.957 10.2687C4.29841 10.7434 3.80597 11.4133 3.54951 12.1836C3.29306 12.9539 3.28561 13.7853 3.52821 14.5601C3.77082 15.3348 4.25117 16.0135 4.90114 16.4999C4.49472 16.8043 4.15226 17.1859 3.89333 17.6227C3.63439 18.0595 3.46406 18.543 3.39206 19.0457C3.32007 19.5484 3.34781 20.0603 3.47372 20.5522C3.59962 21.0442 3.82122 21.5065 4.12585 21.9127C4.43048 22.319 4.81217 22.6613 5.24911 22.92C5.68606 23.1787 6.16969 23.3488 6.67239 23.4205C7.17509 23.4923 7.687 23.4643 8.17887 23.3381C8.67075 23.212 9.13294 22.9901 9.53906 22.6853V25.7812C9.53878 26.593 9.79408 27.3843 10.2688 28.0429C10.7435 28.7015 11.4134 29.1939 12.1837 29.4504C12.954 29.7068 13.7854 29.7143 14.5601 29.4717C15.3349 29.2291 16.0136 28.7488 16.5 28.0988C16.8043 28.5056 17.1858 28.8484 17.6226 29.1077C18.0595 29.3669 18.5432 29.5376 19.0461 29.6097C19.5489 29.6819 20.0611 29.6543 20.5532 29.5284C21.0454 29.4026 21.5079 29.1809 21.9144 28.8761C22.3208 28.5714 22.6632 28.1895 22.9219 27.7523C23.1807 27.3151 23.3507 26.8312 23.4223 26.3283C23.4939 25.8254 23.4657 25.3132 23.3393 24.8212C23.2128 24.3292 22.9906 23.8669 22.6854 23.4608H25.7812C26.5931 23.4611 27.3844 23.2058 28.043 22.7311C28.7016 22.2565 29.194 21.5865 29.4505 20.8162C29.7069 20.046 29.7144 19.2145 29.4718 18.4398C29.2292 17.665 28.7488 16.9863 28.0988 16.4999ZM25.7812 11.0859C26.3966 11.0859 26.9868 11.3303 27.4219 11.7655C27.8571 12.2006 28.1016 12.7908 28.1016 13.4062C28.1016 14.0215 27.8571 14.6117 27.4219 15.0469C26.9868 15.482 26.3966 15.7265 25.7812 15.7265H23.4609V13.4062C23.4616 12.791 23.7063 12.2012 24.1413 11.7662C24.5763 11.3312 25.1661 11.0866 25.7812 11.0859ZM19.5937 4.89835C20.2089 4.89906 20.7987 5.14374 21.2337 5.57873C21.6687 6.01372 21.9134 6.6035 21.9141 7.21866V13.4062C21.9134 14.0213 21.6687 14.6111 21.2337 15.0461C20.7987 15.4811 20.2089 15.7258 19.5937 15.7265H17.2734V7.21866C17.2741 6.6035 17.5188 6.01372 17.9538 5.57873C18.3888 5.14374 18.9786 4.89906 19.5937 4.89835ZM11.0859 7.21866C11.0859 6.60328 11.3304 6.0131 11.7655 5.57796C12.2007 5.14281 12.7909 4.89835 13.4062 4.89835C14.0216 4.89835 14.6118 5.14281 15.047 5.57796C15.4821 6.0131 15.7266 6.60328 15.7266 7.21866V9.53898H13.4062C12.7911 9.53827 12.2013 9.29359 11.7663 8.8586C11.3313 8.4236 11.0866 7.83383 11.0859 7.21866ZM4.89844 13.4062C4.89914 12.791 5.14383 12.2012 5.57882 11.7662C6.01381 11.3312 6.60358 11.0866 7.21875 11.0859H13.4062C14.0214 11.0866 14.6112 11.3312 15.0462 11.7662C15.4812 12.2012 15.7259 12.791 15.7266 13.4062V15.7265H7.21875C6.60358 15.7258 6.01381 15.4811 5.57882 15.0461C5.14383 14.6111 4.89914 14.0213 4.89844 13.4062ZM7.21875 21.914C6.60336 21.914 6.01318 21.6695 5.57804 21.2344C5.1429 20.7992 4.89844 20.209 4.89844 19.5937C4.89844 18.9783 5.1429 18.3881 5.57804 17.953C6.01318 17.5178 6.60336 17.2733 7.21875 17.2733H9.53906V19.5937C9.53836 20.2088 9.29367 20.7986 8.85868 21.2336C8.42369 21.6686 7.83392 21.9133 7.21875 21.914ZM13.4062 28.1015C12.7911 28.1008 12.2013 27.8561 11.7663 27.4211C11.3313 26.9861 11.0866 26.3963 11.0859 25.7812V19.5937C11.0866 18.9785 11.3313 18.3887 11.7663 17.9537C12.2013 17.5187 12.7911 17.2741 13.4062 17.2733H15.7266V25.7812C15.7259 26.3963 15.4812 26.9861 15.0462 27.4211C14.6112 27.8561 14.0214 28.1008 13.4062 28.1015ZM21.9141 25.7812C21.9141 26.3965 21.6696 26.9867 21.2344 27.4219C20.7993 27.857 20.2091 28.1015 19.5937 28.1015C18.9784 28.1015 18.3882 27.857 17.953 27.4219C17.5179 26.9867 17.2734 26.3965 17.2734 25.7812V23.4608H19.5937C20.2089 23.4616 20.7987 23.7062 21.2337 24.1412C21.6687 24.5762 21.9134 25.166 21.9141 25.7812ZM25.7812 21.914H19.5937C18.9786 21.9133 18.3888 21.6686 17.9538 21.2336C17.5188 20.7986 17.2741 20.2088 17.2734 19.5937V17.2733H25.7812C26.3966 17.2733 26.9868 17.5178 27.4219 17.953C27.8571 18.3881 28.1016 18.9783 28.1016 19.5937C28.1016 20.209 27.8571 20.7992 27.4219 21.2344C26.9868 21.6695 26.3966 21.914 25.7812 21.914Z" fill="white"/>
</svg>
