<svg width="32" height="32" viewBox="0 0 32 32" fill="none" xmlns="http://www.w3.org/2000/svg">
<g clip-path="url(#clip0_49_186)">
<path d="M21.3875 4.95911C23.04 4.95911 24.5319 5.63523 25.5829 6.72073C26.8904 6.46773 28.1229 6.00673 29.2304 5.36823C28.8019 6.66926 27.8904 7.76073 26.705 8.45123C27.865 8.31473 28.9755 8.01673 30.006 7.57123C29.2335 8.68823 28.261 9.67173 27.138 10.4577C27.1485 10.6962 27.1545 10.9372 27.1545 11.1772C27.1545 18.5437 21.373 27.0402 10.801 27.0402C7.556 27.0402 4.5335 26.1142 1.99153 24.5332C2.44628 24.5861 2.90372 24.6125 3.36153 24.6122C6.05403 24.6122 8.5335 23.7217 10.501 22.2247C7.9845 22.1817 5.8605 20.5682 5.132 18.3547C5.48879 18.4215 5.85101 18.4552 6.214 18.4552C6.7365 18.4552 7.2455 18.3877 7.7265 18.2597C5.0975 17.7492 3.116 15.4957 3.116 12.7931V12.7216C3.8915 13.1396 4.777 13.3906 5.7205 13.4196C4.1775 12.4186 3.163 10.7146 3.163 8.78011C3.163 7.75761 3.44703 6.79961 3.94153 5.97911C6.77553 9.35011 11.0105 11.5701 15.788 11.8036C15.6895 11.3966 15.6385 10.9666 15.6385 10.5341C15.6385 7.45461 18.212 4.95911 21.3875 4.95911ZM30.0059 7.57226H30.0109H30.0059ZM21.3874 2.95923C17.4604 2.95923 14.207 5.82826 13.706 9.53527C10.493 8.88976 7.57097 7.18876 5.47147 4.69326C5.28379 4.47 5.04953 4.29049 4.78514 4.16733C4.52075 4.04416 4.23261 3.98033 3.94094 3.98029C3.88856 3.9803 3.8362 3.98231 3.78397 3.98629C3.46695 4.01168 3.16053 4.11217 2.89005 4.27945C2.61957 4.44673 2.39279 4.676 2.22847 4.94829C1.53121 6.10523 1.1628 7.43048 1.16294 8.7813C1.16294 9.6828 1.32491 10.5608 1.63194 11.3818C1.30494 11.7453 1.11644 12.2208 1.11644 12.7228V12.7943C1.11644 14.7533 1.89094 16.5713 3.17694 17.9338C3.10294 18.2768 3.11944 18.6358 3.23244 18.9798C3.67597 20.3293 4.48347 21.4923 5.53047 22.3782C4.82744 22.5348 4.10197 22.6138 3.36144 22.6138C2.96994 22.6138 2.58894 22.5923 2.22844 22.5482C2.14844 22.5382 2.06944 22.5347 1.98994 22.5347C1.14994 22.5347 0.387441 23.0642 0.104441 23.8717C-0.206059 24.7567 0.138472 25.7377 0.934441 26.2332C3.88847 28.0713 7.30044 29.0417 10.8004 29.0417C22.1764 29.0417 29.0194 20.1362 29.1524 11.4372C30.0859 10.6649 30.9106 9.76979 31.6039 8.77623C31.8672 8.43051 32.0095 8.0078 32.0089 7.57323C32.0089 6.89273 31.6685 6.29123 31.15 5.9297C31.3745 5.1602 31.1184 4.3272 30.4934 3.8182C30.1284 3.5212 29.6809 3.3702 29.2309 3.3702C28.8802 3.36987 28.5356 3.46214 28.2319 3.6377C27.5709 4.01873 26.8639 4.32023 26.1194 4.53726C24.7724 3.52376 23.1024 2.95926 21.3874 2.95923Z" fill="white"/>
</g>
<defs>
<clipPath id="clip0_49_186">
<rect width="32" height="32" fill="white"/>
</clipPath>
</defs>
</svg>
